<svg xmlns="http://www.w3.org/2000/svg" viewBox="0 0 256 256">
<defs><radialGradient id="bg" cx="50%" cy="42%" r="65%">
<stop offset="0%" stop-color="#B5502A"/><stop offset="100%" stop-color="#8F3E20"/></radialGradient></defs>
<circle cx="128" cy="128" r="126" fill="url(#bg)"/>
<circle cx="128" cy="128" r="126" fill="none" stroke="#221409" stroke-width="4"/>
<g transform="rotate(0.0 128 128)"><path d="M120 8 h16 v10 h-10 v6 h10" fill="none" stroke="#F2E3C6" stroke-width="3"/></g><g transform="rotate(18.0 128 128)"><path d="M120 8 h16 v10 h-10 v6 h10" fill="none" stroke="#F2E3C6" stroke-width="3"/></g><g transform="rotate(36.0 128 128)"><path d="M120 8 h16 v10 h-10 v6 h10" fill="none" stroke="#F2E3C6" stroke-width="3"/></g><g transform="rotate(54.0 128 128)"><path d="M120 8 h16 v10 h-10 v6 h10" fill="none" stroke="#F2E3C6" stroke-width="3"/></g><g transform="rotate(72.0 128 128)"><path d="M120 8 h16 v10 h-10 v6 h10" fill="none" stroke="#F2E3C6" stroke-width="3"/></g><g transform="rotate(90.0 128 128)"><path d="M120 8 h16 v10 h-10 v6 h10" fill="none" stroke="#F2E3C6" stroke-width="3"/></g><g transform="rotate(108.0 128 128)"><path d="M120 8 h16 v10 h-10 v6 h10" fill="none" stroke="#F2E3C6" stroke-width="3"/></g><g transform="rotate(126.0 128 128)"><path d="M120 8 h16 v10 h-10 v6 h10" fill="none" stroke="#F2E3C6" stroke-width="3"/></g><g transform="rotate(144.0 128 128)"><path d="M120 8 h16 v10 h-10 v6 h10" fill="none" stroke="#F2E3C6" stroke-width="3"/></g><g transform="rotate(162.0 128 128)"><path d="M120 8 h16 v10 h-10 v6 h10" fill="none" stroke="#F2E3C6" stroke-width="3"/></g><g transform="rotate(180.0 128 128)"><path d="M120 8 h16 v10 h-10 v6 h10" fill="none" stroke="#F2E3C6" stroke-width="3"/></g><g transform="rotate(198.0 128 128)"><path d="M120 8 h16 v10 h-10 v6 h10" fill="none" stroke="#F2E3C6" stroke-width="3"/></g><g transform="rotate(216.0 128 128)"><path d="M120 8 h16 v10 h-10 v6 h10" fill="none" stroke="#F2E3C6" stroke-width="3"/></g><g transform="rotate(234.0 128 128)"><path d="M120 8 h16 v10 h-10 v6 h10" fill="none" stroke="#F2E3C6" stroke-width="3"/></g><g transform="rotate(252.0 128 128)"><path d="M120 8 h16 v10 h-10 v6 h10" fill="none" stroke="#F2E3C6" stroke-width="3"/></g><g transform="rotate(270.0 128 128)"><path d="M120 8 h16 v10 h-10 v6 h10" fill="none" stroke="#F2E3C6" stroke-width="3"/></g><g transform="rotate(288.0 128 128)"><path d="M120 8 h16 v10 h-10 v6 h10" fill="none" stroke="#F2E3C6" stroke-width="3"/></g><g transform="rotate(306.0 128 128)"><path d="M120 8 h16 v10 h-10 v6 h10" fill="none" stroke="#F2E3C6" stroke-width="3"/></g><g transform="rotate(324.0 128 128)"><path d="M120 8 h16 v10 h-10 v6 h10" fill="none" stroke="#F2E3C6" stroke-width="3"/></g><g transform="rotate(342.0 128 128)"><path d="M120 8 h16 v10 h-10 v6 h10" fill="none" stroke="#F2E3C6" stroke-width="3"/></g>
<circle cx="128" cy="128" r="97" fill="#F2E3C6" stroke="#221409" stroke-width="4"/>
<g fill="#221409" stroke="#221409"><g stroke-linecap="round">
<path d="M146 160 V94 q20 -10 38 -4 V160 z"/>
<circle cx="166" cy="72" r="8"/>
<path d="M166 82 v16 M166 86 l12 -8 M166 90 l-8 12 M166 98 l-6 14 M166 98 l8 12" stroke-width="6" fill="none"/>
<path d="M70 142 q10 6 20 0 q10 -6 20 0 M74 154 q10 6 20 0" fill="none" stroke-width="5"/>
<path d="M86 130 q12 7 24 0 l-4 9 h-17 z"/>
<path d="M98 130 V102"/>
<path d="M98 102 v24 l-17 -5 z"/></g></g>
<path id="arc" d="M 45 158 A 88 88 0 0 0 211 158" fill="none"/>
<text font-family="Helvetica, Arial, sans-serif" font-size="21" font-weight="bold" fill="#221409" letter-spacing="2">
<textPath href="#arc" startOffset="50%" text-anchor="middle">AEGEUS</textPath></text>
</svg>