<svg xmlns="http://www.w3.org/2000/svg" viewBox="0 0 256 256">
<defs><radialGradient id="bg" cx="50%" cy="42%" r="65%">
<stop offset="0%" stop-color="#B5502A"/><stop offset="100%" stop-color="#8F3E20"/></radialGradient></defs>
<circle cx="128" cy="128" r="126" fill="url(#bg)"/>
<circle cx="128" cy="128" r="126" fill="none" stroke="#221409" stroke-width="4"/>
<g transform="rotate(0.0 128 128)"><path d="M120 8 h16 v10 h-10 v6 h10" fill="none" stroke="#F2E3C6" stroke-width="3"/></g><g transform="rotate(18.0 128 128)"><path d="M120 8 h16 v10 h-10 v6 h10" fill="none" stroke="#F2E3C6" stroke-width="3"/></g><g transform="rotate(36.0 128 128)"><path d="M120 8 h16 v10 h-10 v6 h10" fill="none" stroke="#F2E3C6" stroke-width="3"/></g><g transform="rotate(54.0 128 128)"><path d="M120 8 h16 v10 h-10 v6 h10" fill="none" stroke="#F2E3C6" stroke-width="3"/></g><g transform="rotate(72.0 128 128)"><path d="M120 8 h16 v10 h-10 v6 h10" fill="none" stroke="#F2E3C6" stroke-width="3"/></g><g transform="rotate(90.0 128 128)"><path d="M120 8 h16 v10 h-10 v6 h10" fill="none" stroke="#F2E3C6" stroke-width="3"/></g><g transform="rotate(108.0 128 128)"><path d="M120 8 h16 v10 h-10 v6 h10" fill="none" stroke="#F2E3C6" stroke-width="3"/></g><g transform="rotate(126.0 128 128)"><path d="M120 8 h16 v10 h-10 v6 h10" fill="none" stroke="#F2E3C6" stroke-width="3"/></g><g transform="rotate(144.0 128 128)"><path d="M120 8 h16 v10 h-10 v6 h10" fill="none" stroke="#F2E3C6" stroke-width="3"/></g><g transform="rotate(162.0 128 128)"><path d="M120 8 h16 v10 h-10 v6 h10" fill="none" stroke="#F2E3C6" stroke-width="3"/></g><g transform="rotate(180.0 128 128)"><path d="M120 8 h16 v10 h-10 v6 h10" fill="none" stroke="#F2E3C6" stroke-width="3"/></g><g transform="rotate(198.0 128 128)"><path d="M120 8 h16 v10 h-10 v6 h10" fill="none" stroke="#F2E3C6" stroke-width="3"/></g><g transform="rotate(216.0 128 128)"><path d="M120 8 h16 v10 h-10 v6 h10" fill="none" stroke="#F2E3C6" stroke-width="3"/></g><g transform="rotate(234.0 128 128)"><path d="M120 8 h16 v10 h-10 v6 h10" fill="none" stroke="#F2E3C6" stroke-width="3"/></g><g transform="rotate(252.0 128 128)"><path d="M120 8 h16 v10 h-10 v6 h10" fill="none" stroke="#F2E3C6" stroke-width="3"/></g><g transform="rotate(270.0 128 128)"><path d="M120 8 h16 v10 h-10 v6 h10" fill="none" stroke="#F2E3C6" stroke-width="3"/></g><g transform="rotate(288.0 128 128)"><path d="M120 8 h16 v10 h-10 v6 h10" fill="none" stroke="#F2E3C6" stroke-width="3"/></g><g transform="rotate(306.0 128 128)"><path d="M120 8 h16 v10 h-10 v6 h10" fill="none" stroke="#F2E3C6" stroke-width="3"/></g><g transform="rotate(324.0 128 128)"><path d="M120 8 h16 v10 h-10 v6 h10" fill="none" stroke="#F2E3C6" stroke-width="3"/></g><g transform="rotate(342.0 128 128)"><path d="M120 8 h16 v10 h-10 v6 h10" fill="none" stroke="#F2E3C6" stroke-width="3"/></g>
<circle cx="128" cy="128" r="97" fill="#F2E3C6" stroke="#221409" stroke-width="4"/>
<g fill="#221409" stroke="#221409"><g stroke-linecap="round">
<path d="M70 158 L186 84" stroke-width="6" fill="none"/>
<circle cx="150" cy="86" r="17"/>
<circle cx="103" cy="101" r="9"/>
<path d="M100 110 L92 132 M92 132 L85 154 M92 132 L102 150" stroke-width="8" fill="none"/>
<path d="M101 114 L131 102 M99 122 L129 112" stroke-width="7" fill="none"/></g></g>
<path id="arc" d="M 45 158 A 88 88 0 0 0 211 158" fill="none"/>
<text font-family="Helvetica, Arial, sans-serif" font-size="21" font-weight="bold" fill="#221409" letter-spacing="2">
<textPath href="#arc" startOffset="50%" text-anchor="middle">SISYPHUS</textPath></text>
</svg>