<svg xmlns="http://www.w3.org/2000/svg" viewBox="0 0 256 256">
<defs><radialGradient id="bg" cx="50%" cy="42%" r="65%">
<stop offset="0%" stop-color="#B5502A"/><stop offset="100%" stop-color="#8F3E20"/></radialGradient></defs>
<circle cx="128" cy="128" r="126" fill="url(#bg)"/>
<circle cx="128" cy="128" r="126" fill="none" stroke="#221409" stroke-width="4"/>
<g transform="rotate(0.0 128 128)"><path d="M120 8 h16 v10 h-10 v6 h10" fill="none" stroke="#F2E3C6" stroke-width="3"/></g><g transform="rotate(18.0 128 128)"><path d="M120 8 h16 v10 h-10 v6 h10" fill="none" stroke="#F2E3C6" stroke-width="3"/></g><g transform="rotate(36.0 128 128)"><path d="M120 8 h16 v10 h-10 v6 h10" fill="none" stroke="#F2E3C6" stroke-width="3"/></g><g transform="rotate(54.0 128 128)"><path d="M120 8 h16 v10 h-10 v6 h10" fill="none" stroke="#F2E3C6" stroke-width="3"/></g><g transform="rotate(72.0 128 128)"><path d="M120 8 h16 v10 h-10 v6 h10" fill="none" stroke="#F2E3C6" stroke-width="3"/></g><g transform="rotate(90.0 128 128)"><path d="M120 8 h16 v10 h-10 v6 h10" fill="none" stroke="#F2E3C6" stroke-width="3"/></g><g transform="rotate(108.0 128 128)"><path d="M120 8 h16 v10 h-10 v6 h10" fill="none" stroke="#F2E3C6" stroke-width="3"/></g><g transform="rotate(126.0 128 128)"><path d="M120 8 h16 v10 h-10 v6 h10" fill="none" stroke="#F2E3C6" stroke-width="3"/></g><g transform="rotate(144.0 128 128)"><path d="M120 8 h16 v10 h-10 v6 h10" fill="none" stroke="#F2E3C6" stroke-width="3"/></g><g transform="rotate(162.0 128 128)"><path d="M120 8 h16 v10 h-10 v6 h10" fill="none" stroke="#F2E3C6" stroke-width="3"/></g><g transform="rotate(180.0 128 128)"><path d="M120 8 h16 v10 h-10 v6 h10" fill="none" stroke="#F2E3C6" stroke-width="3"/></g><g transform="rotate(198.0 128 128)"><path d="M120 8 h16 v10 h-10 v6 h10" fill="none" stroke="#F2E3C6" stroke-width="3"/></g><g transform="rotate(216.0 128 128)"><path d="M120 8 h16 v10 h-10 v6 h10" fill="none" stroke="#F2E3C6" stroke-width="3"/></g><g transform="rotate(234.0 128 128)"><path d="M120 8 h16 v10 h-10 v6 h10" fill="none" stroke="#F2E3C6" stroke-width="3"/></g><g transform="rotate(252.0 128 128)"><path d="M120 8 h16 v10 h-10 v6 h10" fill="none" stroke="#F2E3C6" stroke-width="3"/></g><g transform="rotate(270.0 128 128)"><path d="M120 8 h16 v10 h-10 v6 h10" fill="none" stroke="#F2E3C6" stroke-width="3"/></g><g transform="rotate(288.0 128 128)"><path d="M120 8 h16 v10 h-10 v6 h10" fill="none" stroke="#F2E3C6" stroke-width="3"/></g><g transform="rotate(306.0 128 128)"><path d="M120 8 h16 v10 h-10 v6 h10" fill="none" stroke="#F2E3C6" stroke-width="3"/></g><g transform="rotate(324.0 128 128)"><path d="M120 8 h16 v10 h-10 v6 h10" fill="none" stroke="#F2E3C6" stroke-width="3"/></g><g transform="rotate(342.0 128 128)"><path d="M120 8 h16 v10 h-10 v6 h10" fill="none" stroke="#F2E3C6" stroke-width="3"/></g>
<circle cx="128" cy="128" r="97" fill="#F2E3C6" stroke="#221409" stroke-width="4"/>
<g fill="#221409" stroke="#221409"><g stroke-linecap="round">
<rect x="80" y="120" width="96" height="10" rx="3"/>
<rect x="82" y="98" width="9" height="44" rx="3"/>
<rect x="158" y="98" width="9" height="44" rx="3"/>
<circle cx="102" cy="106" r="9"/>
<path d="M112 112 h58" stroke-width="8" fill="none"/>
<path d="M170 112 h20 M186 108 l6 4 l-6 5" stroke-width="6" fill="none"/>
<path d="M80 150 h96" stroke-width="4" fill="none" stroke-dasharray="6 6"/></g></g>
<path id="arc" d="M 45 158 A 88 88 0 0 0 211 158" fill="none"/>
<text font-family="Helvetica, Arial, sans-serif" font-size="17" font-weight="bold" fill="#221409" letter-spacing="2">
<textPath href="#arc" startOffset="50%" text-anchor="middle">PROCRUSTES</textPath></text>
</svg>